<?xml version="1.0" encoding="UTF-8" standalone="no"?><svg width="670" height="720" xmlns="http://www.w3.org/2000/svg" xmlns:xlink="http://www.w3.org/1999/xlink" xml:space="preserve" overflow="hidden"><g transform="translate(-305 0)"><path d="M3895.47 3276.65C3840.33 3272.08 3796.33 3260.65 3752.62 3239.79 3660.91 3196.08 3604.34 3120.09 3580.63 3008.38 3572.63 2970.1 3573.2 2864.1 3582.06 2820.39 3618.06 2640.69 3740.05 2561.27 3961.46 2574.12 4040.31 2578.69 4092.31 2589.55 4157.74 2614.98L4179.73 2623.55 4179.73 2693.26C4179.73 2758.68 4179.45 2763.25 4174.88 2761.25 4119.45 2739.54 4000.32 2719.83 3925.18 2719.83 3894.61 2719.83 3834.9 2710.69 3712.91 2686.97 3684.91 2681.54 3661.2 2676.97 3660.05 2676.97 3656.05 2677.54 3753.48 2712.68 3795.47 2726.11 3820.61 2734.11 3842.04 2740.97 3843.47 2741.83 3844.61 2742.4 3839.18 2750.4 3831.19 2758.97 3802.04 2791.82 3787.76 2845.53 3787.76 2922.67 3787.76 2959.24 3789.19 2976.38 3793.76 2998.1 3808.62 3069.81 3850.04 3118.09 3905.18 3128.37 3936.32 3134.09 3986.03 3129.52 3994.03 3120.09 3996.6 3117.23 4001.17 3097.52 4005.17 3072.38 4008.89 3048.95 4012.89 3028.66 4014.03 3027.52 4016.03 3025.24 4126.6 3014.38 4149.17 3014.09L4159.74 3014.09 4159.74 3116.95 4159.74 3219.8 4147.74 3227.22C4090.03 3263.79 3984.32 3284.36 3895.47 3276.65Z" fill="#FFFFFF" transform="matrix(1 0 0 -1.00041 -3263.55 3285.8)"/><path d="M3910.04 2922.1C3909.18 2920.1 3906.04 2899.24 3902.61 2875.53 3899.47 2852.1 3896.04 2829.25 3895.18 2824.96L3893.47 2816.96 3940.61 2816.96C4024.03 2816.96 4163.16 2828.96 4223.45 2841.53L4231.16 2843.25 4231.16 2884.39 4231.16 2925.53 4071.17 2925.53C3945.46 2925.53 3910.89 2924.67 3910.04 2922.1Z" fill="#FFFFFF" transform="matrix(1 0 0 -1.00041 -3263.55 3285.8)"/></g></svg>