<?xml version="1.0" encoding="UTF-8" standalone="no"?><svg width="861" height="214" xmlns="http://www.w3.org/2000/svg" xmlns:xlink="http://www.w3.org/1999/xlink" xml:space="preserve" overflow="hidden"><g transform="translate(-243 357)"><path d="M855.625 1013.46C832.517 1011.76 813.602 1000.25 805.394 983.121 799.595 971.076 798.97 967.597 798.97 949.753 798.97 931.552 799.862 926.645 805.394 915.403 811.193 903.447 822.435 894.614 836.443 890.867 853.484 886.317 881.945 888.191 900.503 894.971L905.589 896.845 905.589 909.247C905.589 916.117 905.41 921.648 905.232 921.648 905.053 921.648 903.269 921.024 901.217 920.399 894.882 918.079 877.841 915.403 866.778 914.867 860.443 914.6 847.952 912.905 836.086 910.853 825.201 908.89 816.011 907.462 815.833 907.641 815.654 907.819 822.524 910.317 831 913.262L846.614 918.526 844.562 920.756C835.283 930.57 833.32 959.299 840.725 974.021 845.632 983.567 854.822 988.385 866.242 987.315 869.9 987.047 872.488 986.333 873.112 985.53 873.648 984.727 874.54 980.712 875.164 976.519 875.789 972.326 876.592 968.935 876.949 968.846 877.216 968.846 883.016 968.311 889.797 967.686L902.02 966.615 902.02 985.441 902.02 1004.27 896.934 1006.68C884.443 1012.3 870.793 1014.62 855.625 1013.46Z" transform="matrix(1 0 0 -1.00045 -549.311 660.688)"/><path d="M978.928 1013.37C963.76 1012.12 952.875 1007.3 942.972 997.486 931.106 985.709 925.931 971.879 925.752 951.359 925.752 944.935 925.842 939.403 926.109 939.225 926.466 938.779 954.125 943.686 960.548 945.202 962.244 945.649 962.511 946.541 962.957 954.392 964.296 975.716 971.523 985.263 986.333 985.352 993.56 985.441 998.735 983.21 1001.95 978.839 1004.8 974.824 1007.3 966.615 1007.92 959.389 1008.37 954.214 1008.73 952.875 1009.89 952.875 1011.49 952.875 1038.35 956.177 1042.81 956.89L1045.66 957.426 1045.13 962.511C1042.99 982.943 1032.64 999.449 1017.03 1007.21 1006.05 1012.74 994.095 1014.71 978.928 1013.37Z" transform="matrix(1 0 0 -1.00045 -549.311 660.688)"/><path d="M1054.77 1003.11 1055.03 994.363 1060.39 993.738C1063.33 993.382 1066.27 992.846 1066.9 992.579 1067.7 992.311 1067.97 988.118 1067.97 975.805L1067.97 959.478 1083.41 960.638C1091.79 961.262 1100.09 962.065 1101.7 962.333L1104.55 962.779 1104.55 977.5C1104.55 988.474 1104.82 992.311 1105.71 992.579 1106.25 992.846 1109.99 993.292 1113.92 993.649L1121.06 994.363 1121.32 1003.11 1121.59 1011.76 1088.04 1011.76 1054.5 1011.76 1054.77 1003.11Z" transform="matrix(1 0 0 -1.00045 -549.311 660.688)"/><path d="M1295.93 1010.69C1289.33 993.025 1279.42 965.723 1279.42 965.277 1279.42 964.92 1283.71 964.385 1289.06 964.117 1294.32 963.76 1300.48 963.403 1302.71 963.225L1306.81 962.957 1308.95 969.56C1310.03 973.218 1311.27 976.34 1311.72 976.608 1312.08 976.876 1313.33 973.931 1314.4 970.184 1315.82 965.366 1316.98 963.136 1318.23 962.6 1319.21 962.244 1326.26 961.441 1333.85 960.905 1341.43 960.37 1349.37 959.745 1351.51 959.389L1355.26 958.942 1351.69 969.024C1349.64 974.645 1345.36 986.512 1342.14 995.523L1336.35 1011.76 1316.27 1011.76C1301.1 1011.76 1296.2 1011.49 1295.93 1010.69Z" transform="matrix(1 0 0 -1.00045 -549.311 660.688)"/><path d="M1377.57 991.24 1377.57 970.72 1390.41 970.72 1403.17 970.72 1404.6 978.482C1405.4 982.675 1406.56 986.512 1407.19 986.958 1407.81 987.315 1410.4 987.582 1412.81 987.493L1417.27 987.225 1417.27 948.682C1417.27 927.537 1417 909.96 1416.73 909.693 1416.47 909.425 1413.25 908.979 1409.6 908.711 1405.94 908.444 1401.65 907.997 1400.14 907.73L1397.19 907.284 1397.19 898.897 1397.19 890.421 1436 890.421 1474.82 890.421 1474.82 898.808 1474.82 907.195 1472.41 907.73C1470.98 907.908 1466.43 908.444 1462.15 908.711L1454.38 909.336 1453.85 912.994C1453.58 915.046 1453.4 932.622 1453.58 951.983L1453.85 987.225 1457.33 987.493C1463.84 988.028 1464.64 987.404 1465.8 981.248 1466.34 978.125 1467.05 974.556 1467.32 973.218L1467.86 970.72 1480.7 970.72 1493.55 970.72 1493.55 991.24 1493.55 1011.76 1435.56 1011.76 1377.57 1011.76 1377.57 991.24Z" transform="matrix(1 0 0 -1.00045 -549.311 660.688)"/><path d="M1505.15 1002.93 1505.15 994.095 1511.31 993.471C1516.57 992.935 1517.55 992.579 1518 990.973 1518.27 989.902 1518.53 971.433 1518.53 950.02 1518.53 907.284 1518.62 908.265 1513.27 908.265 1511.84 908.265 1509.43 907.997 1507.92 907.73L1505.15 907.195 1505.15 898.808 1505.15 890.421 1536.82 890.421 1568.5 890.421 1568.5 898.808C1568.5 907.997 1568.41 908.176 1561.81 908.265 1560.38 908.265 1558.24 908.533 1557.17 908.8 1555.11 909.336 1555.11 909.603 1555.11 924.414L1555.11 939.492 1572.07 939.492 1589.02 939.492 1588.84 924.593 1588.57 909.603 1586.34 908.979C1585.09 908.622 1582.24 908.087 1579.92 907.819L1575.63 907.284 1575.63 898.808 1575.63 890.421 1607.75 890.421 1639.87 890.421 1639.87 898.808 1639.87 907.195 1636.3 907.73C1634.34 907.997 1631.13 908.533 1629.17 908.8L1625.6 909.336 1625.78 950.913 1626.04 992.579 1632.74 993.471 1639.43 994.363 1639.7 1003.11 1639.96 1011.76 1607.75 1011.76 1575.63 1011.76 1575.63 1002.93 1575.63 994.185 1582.15 993.382 1588.57 992.579 1588.84 979.017 1589.11 965.366 1572.07 965.366 1555.02 965.366 1555.29 979.017 1555.56 992.579 1562.07 993.382 1568.5 994.185 1568.5 1002.93 1568.5 1011.76 1536.82 1011.76 1505.15 1011.76 1505.15 1002.93Z" transform="matrix(1 0 0 -1.00045 -549.311 660.688)"/><path d="M1139.79 955.017C1061.55 951.269 1006.14 945.47 933.425 933.515 922.54 931.73 913.797 930.124 913.975 929.946 914.154 929.678 921.113 930.57 929.41 931.819 992.043 941.277 1055.48 947.165 1130.87 950.377 1163.17 951.716 1262.74 951.716 1291.91 950.377 1327.69 948.682 1338.22 948.325 1330.28 949.307 1323.14 950.11 1293.25 952.34 1268.27 953.857 1253.91 954.749 1153 955.641 1139.79 955.017Z" transform="matrix(1 0 0 -1.00045 -549.311 660.688)"/><path d="M1367.57 952.875C1365.34 950.556 1364.99 949.664 1365.43 947.255 1366.23 943.061 1368.91 941.277 1374.35 941.277 1378.19 941.277 1379.44 941.723 1381.13 943.507 1383.72 946.273 1383.1 947.879 1377.74 952.34 1373.02 956.266 1371.05 956.355 1367.57 952.875Z" transform="matrix(1 0 0 -1.00045 -549.311 660.688)"/><path d="M857.945 949.128C857.053 944.756 855.625 935.21 855.625 933.425 855.625 931.552 855.982 931.463 863.03 931.463 872.755 931.552 890.064 932.89 904.072 934.674L915.403 936.191 915.403 943.596 915.403 951.091 886.852 951.091 858.302 951.091 857.945 949.128Z" transform="matrix(1 0 0 -1.00045 -549.311 660.688)"/><path d="M1339.91 947.79C1340.98 947.611 1342.77 947.611 1343.93 947.79 1345 947.968 1344.11 948.147 1341.88 948.147 1339.65 948.147 1338.75 947.968 1339.91 947.79Z" transform="matrix(1 0 0 -1.00045 -549.311 660.688)"/><path d="M1176.82 941.634C1175.48 938.332 1175.57 938.243 1180.39 936.548 1184.22 935.21 1184.85 934.585 1185.29 931.998 1186.01 928.251 1185.47 908.622 1184.67 907.819 1184.31 907.462 1182.71 906.927 1181.1 906.57L1178.16 905.945 1177.89 898.183 1177.62 890.421 1201.35 890.421 1225.09 890.421 1224.82 898.183 1224.55 905.945 1221.79 906.57C1216.88 907.551 1216.97 907.105 1216.97 926.198L1216.97 943.953 1197.34 943.953 1177.71 943.953 1176.82 941.634Z" transform="matrix(1 0 0 -1.00045 -549.311 660.688)"/><path d="M1265.24 927.18C1262.11 918.793 1258.99 911.388 1258.28 910.853 1257.56 910.228 1255.15 909.247 1252.83 908.711L1248.64 907.641 1248.37 898.986 1248.11 890.421 1275.85 890.421 1303.51 890.421 1303.51 898.808 1303.51 907.195 1300.75 907.73C1299.23 907.997 1296.91 908.265 1295.57 908.265 1291.47 908.265 1290.75 909.336 1292 913.529L1293.07 917.187 1311.45 917.009 1329.74 916.741 1331.08 913.351C1332.6 909.247 1331.8 908.265 1326.71 908.265 1319.66 908.176 1319.57 908.087 1319.57 898.808L1319.57 890.421 1351.69 890.421 1383.81 890.421 1383.81 898.897 1383.81 907.284 1380.06 908.265C1372.57 910.139 1372.84 909.871 1367.66 924.325 1363.83 934.942 1362.49 937.886 1361.06 938.154 1358.56 938.6 1309.4 941.098 1288.26 941.812L1270.86 942.437 1265.24 927.18Z" transform="matrix(1 0 0 -1.00045 -549.311 660.688)"/><path d="M1079.57 939.492C1074.39 939.135 1069.67 938.779 1069.13 938.689 1068.24 938.6 1067.97 935.121 1067.97 924.325L1067.97 910.05 1065.65 909.157C1064.4 908.622 1062.08 908.265 1060.39 908.265 1054.77 908.265 1054.59 907.997 1054.59 898.808L1054.59 890.421 1103.66 890.421 1152.73 890.421 1152.73 912.28 1152.73 934.139 1139.88 934.139 1127.03 934.139 1126.05 926.823C1125.43 922.719 1124.8 918.347 1124.54 917.009L1124 914.511 1114.28 914.511 1104.55 914.511 1104.55 927.448 1104.55 940.385 1096.79 940.206C1092.42 940.117 1084.74 939.76 1079.57 939.492Z" transform="matrix(1 0 0 -1.00045 -549.311 660.688)"/><path d="M1024.25 935.388C1017.65 934.764 1010.96 934.228 1009.53 934.228 1007.12 934.139 1006.68 933.693 1005.25 929.589 1002.3 921.559 994.988 916.295 986.422 916.295 977.946 916.295 969.649 920.934 967.151 927.001 966.526 928.518 965.545 929.678 965.009 929.678 962.422 929.589 929.5 925.396 929.143 925.039 928.429 924.236 931.373 917.098 934.585 911.834 940.652 901.93 953.054 893.098 964.92 890.421 977.143 887.566 995.612 887.834 1006.32 890.956 1024.61 896.22 1038.17 910.05 1042.63 927.983 1043.35 931.106 1044.24 934.407 1044.42 935.299 1044.95 937.173 1042.45 937.173 1024.25 935.388Z" transform="matrix(1 0 0 -1.00045 -549.311 660.688)"/><path d="M908.979 929.054C909.514 928.875 910.585 928.875 911.209 929.054 911.745 929.321 911.299 929.5 910.05 929.5 908.8 929.5 908.354 929.321 908.979 929.054Z" transform="matrix(1 0 0 -1.00045 -549.311 660.688)"/><path d="M904.518 928.161C905.142 927.894 905.945 927.983 906.213 928.251 906.57 928.518 906.035 928.786 905.053 928.697 904.072 928.697 903.804 928.429 904.518 928.161Z" transform="matrix(1 0 0 -1.00045 -549.311 660.688)"/><path d="M962.065 861.335C957.069 859.551 951.537 853.841 949.842 848.755 949.039 846.346 948.414 841.617 948.414 837.781 948.414 821.632 955.998 813.334 970.809 813.513 984.906 813.691 992.846 823.952 991.954 840.814 991.508 848.755 989.634 853.484 985.263 857.588 980.177 862.495 970.006 864.101 962.065 861.335ZM978.749 856.963C986.512 852.948 990.08 839.476 986.333 828.77 982.943 819.223 972.593 814.584 963.314 818.509 959.389 820.115 954.927 825.379 953.678 829.93 952.072 836.086 953.054 845.811 955.909 850.629 960.281 858.123 970.809 861.068 978.749 856.963Z" transform="matrix(1 0 0 -1.00045 -549.311 660.688)"/><path d="M1177.71 861.96C1171.2 859.997 1166.56 855.803 1163.7 849.469 1161.65 845.008 1161.65 830.554 1163.7 826.093 1167.45 817.706 1173.96 813.602 1183.42 813.602 1193.15 813.602 1199.48 817.26 1203.23 825.112 1205.37 829.483 1205.73 831.357 1205.82 838.227 1205.82 850.272 1202.51 856.785 1194.31 860.621 1189.67 862.763 1182.44 863.387 1177.71 861.96ZM1193.86 856.071C1202.07 850.718 1204.12 833.766 1197.7 824.13 1191.72 815.03 1176.19 815.119 1170.13 824.219 1163.79 833.766 1165.84 849.647 1174.23 855.893 1179.41 859.64 1188.24 859.729 1193.86 856.071Z" transform="matrix(1 0 0 -1.00045 -549.311 660.688)"/><path d="M1471.96 861.514C1462.06 857.677 1457.86 850.629 1457.77 837.959 1457.77 825.825 1462.95 816.814 1471.34 814.584 1476.78 813.067 1487.4 813.424 1491.68 815.119 1495.34 816.546 1495.34 816.546 1495.34 821.454 1495.34 825.558 1495.07 826.271 1493.82 826.004 1492.75 825.825 1492.12 824.755 1491.95 822.881 1491.59 819.045 1489.98 818.063 1483.56 817.528 1475.8 816.903 1471.25 818.331 1467.41 822.524 1463.66 826.628 1462.32 830.822 1462.32 838.316 1462.32 851.699 1468.84 858.659 1481.15 858.569 1488.38 858.569 1490.07 857.677 1491.32 853.305 1491.86 851.253 1492.93 849.737 1493.82 849.558 1495.07 849.29 1495.34 850.004 1495.34 854.198 1495.34 858.837 1495.16 859.194 1492.48 860.621 1488.56 862.673 1476.33 863.12 1471.96 861.514Z" transform="matrix(1 0 0 -1.00045 -549.311 660.688)"/><path d="M1571.98 861.87C1565.2 859.818 1562.7 855.803 1563.05 847.328 1563.23 843.402 1567.96 839.298 1574.74 837.067 1585.81 833.32 1588.39 830.465 1586.7 823.595 1585.72 819.669 1581.52 817.26 1575.55 817.26 1568.94 817.26 1566.09 818.688 1565.46 822.257 1565.02 824.487 1564.39 825.29 1563.14 825.29 1561.63 825.29 1561.36 824.666 1561.36 820.383L1561.36 815.565 1564.93 814.584C1566.98 814.048 1571.35 813.602 1574.83 813.602 1585.9 813.513 1591.69 818.063 1591.69 826.628 1591.69 834.034 1588.48 837.335 1577.6 840.904 1570.82 843.045 1567.6 846.078 1567.6 850.093 1567.69 855.893 1571.17 858.391 1578.85 858.391 1584.65 858.391 1585.98 857.588 1586.7 853.395 1587.14 851.075 1587.77 850.272 1589.02 850.272 1590.62 850.272 1590.8 850.896 1590.8 855.536L1590.8 860.8 1586.88 861.781C1582.33 862.852 1575.46 862.941 1571.98 861.87Z" transform="matrix(1 0 0 -1.00045 -549.311 660.688)"/><path d="M845.811 860.532C845.811 859.818 846.792 859.015 848.041 858.659L850.272 858.123 850.272 837.692 850.272 817.26 848.041 817.26C846.435 817.26 845.811 816.814 845.811 815.476 845.811 813.691 846.257 813.602 853.216 813.87 859.015 814.048 860.532 814.405 860.532 815.476 860.532 816.279 859.462 816.993 857.856 817.26L855.179 817.706 855.179 826.182 855.179 834.658 859.283 834.926C866.153 835.372 867.491 834.391 870.882 826.093 872.577 821.989 874.094 818.331 874.183 817.974 874.361 817.617 873.291 817.26 871.774 817.26 869.543 817.26 869.008 816.903 869.008 815.476 869.008 813.691 869.454 813.602 876.86 813.87 882.927 814.048 884.622 814.405 884.622 815.387 884.622 816.1 883.373 816.993 881.856 817.439 879.447 818.063 878.733 819.045 876.235 825.022 874.629 828.859 872.666 832.963 871.952 834.123 870.793 835.907 870.793 836.443 871.685 836.71 872.309 836.978 874.004 838.138 875.432 839.476 880.339 843.848 880.607 853.662 875.967 858.034 872.577 861.246 869.365 861.87 857.32 861.87 847.774 861.87 845.811 861.692 845.811 860.532ZM867.581 857.409C872.398 856.339 874.629 853.841 874.629 849.647 874.629 847.774 874.272 845.275 873.915 844.116 873.023 841.082 866.956 838.673 860.354 838.673L854.733 838.673 854.733 848.487 854.733 858.302 859.462 858.302C861.96 858.302 865.707 857.856 867.581 857.409Z" transform="matrix(1 0 0 -1.00045 -549.311 660.688)"/><path d="M1059.94 860.532C1059.94 859.818 1060.92 859.015 1062.17 858.659L1064.4 858.123 1064.4 837.692 1064.4 817.26 1062.17 817.26C1060.48 817.26 1059.94 816.814 1059.94 815.387 1059.94 813.424 1060.12 813.424 1072.7 813.87 1081.17 814.227 1086.53 814.851 1088.67 815.743 1098.75 819.937 1097.68 835.907 1087.24 838.316L1084.65 838.852 1087.42 840.547C1092.15 843.669 1093.93 852.235 1090.72 857.142 1088.22 860.889 1084.3 861.87 1071.54 861.87 1061.9 861.87 1059.94 861.692 1059.94 860.532ZM1082.42 857.409C1086.26 856.339 1087.6 854.376 1087.6 849.826 1087.6 843.223 1083.67 840.458 1074.22 840.458L1068.86 840.458 1068.86 849.38 1068.86 858.302 1074.04 858.302C1076.8 858.302 1080.64 857.856 1082.42 857.409ZM1083.05 835.907C1088.4 834.747 1090.36 832.785 1090.9 827.699 1091.26 824.487 1090.99 823.416 1089.12 821.275 1086.97 818.777 1086.53 818.688 1077.87 818.331L1068.86 817.974 1068.86 826.807C1068.86 831.714 1069.13 835.997 1069.49 836.264 1070.38 837.246 1078.05 836.978 1083.05 835.907Z" transform="matrix(1 0 0 -1.00045 -549.311 660.688)"/><path d="M1269.61 856.963C1269.61 852.681 1269.79 852.056 1271.39 852.056 1272.64 852.056 1273.36 852.948 1273.89 855L1274.6 857.856 1280.85 857.856 1287.01 857.856 1287.27 839.565C1287.36 829.483 1287.27 820.383 1287.01 819.312 1286.65 817.617 1285.94 817.26 1282.99 817.26 1280.05 817.26 1279.42 816.993 1279.42 815.476 1279.42 813.781 1280.05 813.691 1289.68 813.691 1299.32 813.691 1299.94 813.781 1299.94 815.476 1299.94 816.993 1299.32 817.26 1296.02 817.26 1293.25 817.26 1291.91 817.706 1291.56 818.688 1291.29 819.491 1291.02 828.68 1291.02 839.208L1291.02 858.302 1297.71 858.302C1303.69 858.302 1304.4 858.123 1304.4 856.606 1304.4 853.662 1305.39 852.056 1307.17 852.056 1308.6 852.056 1308.87 852.77 1308.87 856.963L1308.87 861.87 1289.24 861.87 1269.61 861.87 1269.61 856.963Z" transform="matrix(1 0 0 -1.00045 -549.311 660.688)"/><path d="M1374 860.621C1374 859.908 1375.33 859.105 1377.12 858.837L1380.24 858.212 1380.06 837.959 1379.8 817.706 1376.94 817.439C1374.71 817.171 1374 816.725 1374 815.387 1374 813.781 1374.53 813.602 1382.29 813.87 1388.9 814.048 1390.5 814.405 1390.5 815.476 1390.5 816.368 1389.43 816.903 1387.65 817.082L1384.7 817.349 1384.7 837.781 1384.7 858.212 1387.83 858.837C1389.61 859.105 1390.95 859.908 1390.95 860.621 1390.95 861.603 1389.07 861.87 1382.47 861.87 1375.87 861.87 1374 861.603 1374 860.621Z" transform="matrix(1 0 0 -1.00045 -549.311 660.688)"/></g></svg>