<?xml version="1.0" encoding="UTF-8" standalone="no"?><svg width="1714" height="446" xmlns="http://www.w3.org/2000/svg" xmlns:xlink="http://www.w3.org/1999/xlink" xml:space="preserve" overflow="hidden"><g transform="translate(228 -177)"><path d="M1710.39 2025.89C1664.19 2022.5 1626.38 1999.5 1609.98 1965.25 1598.38 1941.17 1597.13 1934.22 1597.13 1898.55 1597.13 1862.16 1598.92 1852.36 1609.98 1829.88 1621.57 1805.98 1644.04 1788.33 1672.04 1780.84 1706.11 1771.74 1763 1775.49 1800.1 1789.04L1810.26 1792.79 1810.26 1817.58C1810.26 1831.31 1809.91 1842.37 1809.55 1842.37 1809.19 1842.37 1805.63 1841.12 1801.53 1839.87 1788.86 1835.23 1754.8 1829.88 1732.68 1828.81 1720.02 1828.28 1695.05 1824.89 1671.33 1820.79 1649.57 1816.86 1631.2 1814.01 1630.84 1814.37 1630.49 1814.72 1644.22 1819.72 1661.16 1825.6L1692.37 1836.13 1688.27 1840.58C1669.72 1860.2 1665.8 1917.63 1680.6 1947.06 1690.41 1966.14 1708.78 1975.77 1731.61 1973.63 1738.92 1973.1 1744.1 1971.67 1745.34 1970.07 1746.41 1968.46 1748.2 1960.44 1749.45 1952.05 1750.7 1943.67 1752.3 1936.89 1753.01 1936.72 1753.55 1936.72 1765.14 1935.65 1778.7 1934.4L1803.13 1932.26 1803.13 1969.89 1803.13 2007.52 1792.96 2012.34C1768 2023.57 1740.71 2028.21 1710.39 2025.89Z" fill="#FFFFFF" transform="matrix(1.00076 0 0 -1 -1813.22 2214.77)"/><path d="M1956.87 2025.71C1926.55 2023.22 1904.79 2013.58 1884.99 1993.97 1861.27 1970.42 1850.93 1942.78 1850.57 1901.76 1850.57 1888.92 1850.75 1877.86 1851.29 1877.5 1852 1876.61 1907.29 1886.42 1920.13 1889.45 1923.52 1890.34 1924.05 1892.13 1924.94 1907.82 1927.62 1950.45 1942.07 1969.53 1971.67 1969.71 1986.12 1969.89 1996.46 1965.43 2002.88 1956.69 2008.59 1948.67 2013.58 1932.26 2014.83 1917.81 2015.72 1907.47 2016.44 1904.79 2018.76 1904.79 2021.97 1904.79 2075.65 1911.39 2084.57 1912.82L2090.28 1913.89 2089.21 1924.05C2084.93 1964.89 2064.24 1997.89 2033.03 2013.41 2011.09 2024.46 1987.19 2028.39 1956.87 2025.71Z" fill="#FFFFFF" transform="matrix(1.00076 0 0 -1 -1813.22 2214.77)"/><path d="M2108.47 2005.2 2109 1987.72 2119.7 1986.48C2125.59 1985.76 2131.47 1984.69 2132.72 1984.16 2134.33 1983.62 2134.86 1975.24 2134.86 1950.63L2134.86 1917.99 2165.72 1920.31C2182.48 1921.56 2199.07 1923.16 2202.28 1923.7L2207.99 1924.59 2207.99 1954.02C2207.99 1975.95 2208.52 1983.62 2210.31 1984.16 2211.38 1984.69 2218.87 1985.58 2226.71 1986.3L2240.98 1987.72 2241.52 2005.2 2242.05 2022.5 2174.99 2022.5 2107.93 2022.5 2108.47 2005.2Z" fill="#FFFFFF" transform="matrix(1.00076 0 0 -1 -1813.22 2214.77)"/><path d="M2590.55 2020.36C2577.35 1985.05 2557.56 1930.47 2557.56 1929.58 2557.56 1928.87 2566.12 1927.8 2576.82 1927.26 2587.34 1926.55 2599.65 1925.84 2604.11 1925.48L2612.31 1924.94 2616.59 1938.14C2618.73 1945.45 2621.23 1951.7 2622.12 1952.23 2622.83 1952.77 2625.33 1946.88 2627.47 1939.39 2630.32 1929.76 2632.64 1925.3 2635.14 1924.23 2637.1 1923.52 2651.19 1921.91 2666.35 1920.84 2681.51 1919.77 2697.38 1918.52 2701.66 1917.81L2709.15 1916.92 2702.02 1937.07C2697.92 1948.31 2689.36 1972.03 2682.94 1990.04L2671.34 2022.5 2631.21 2022.5C2600.9 2022.5 2591.09 2021.97 2590.55 2020.36Z" fill="#FFFFFF" transform="matrix(1.00076 0 0 -1 -1813.22 2214.77)"/><path d="M2753.74 1981.48 2753.74 1940.46 2779.42 1940.46 2804.93 1940.46 2807.78 1955.98C2809.39 1964.36 2811.71 1972.03 2812.95 1972.92 2814.2 1973.63 2819.38 1974.17 2824.19 1973.99L2833.11 1973.46 2833.11 1896.41C2833.11 1854.14 2832.57 1819 2832.04 1818.47 2831.5 1817.93 2825.08 1817.04 2817.77 1816.51 2810.46 1815.97 2801.9 1815.08 2798.86 1814.54L2792.98 1813.65 2792.98 1796.89 2792.98 1779.94 2870.56 1779.94 2948.15 1779.94 2948.15 1796.71 2948.15 1813.47 2943.33 1814.54C2940.48 1814.9 2931.38 1815.97 2922.82 1816.51L2907.3 1817.76 2906.23 1825.07C2905.7 1829.17 2905.34 1864.3 2905.7 1903.01L2906.23 1973.46 2913.19 1973.99C2926.21 1975.06 2927.81 1973.81 2930.13 1961.51 2931.2 1955.26 2932.63 1948.13 2933.16 1945.45L2934.23 1940.46 2959.92 1940.46 2985.6 1940.46 2985.6 1981.48 2985.6 2022.5 2869.67 2022.5 2753.74 2022.5 2753.74 1981.48Z" fill="#FFFFFF" transform="matrix(1.00076 0 0 -1 -1813.22 2214.77)"/><path d="M3008.78 2004.85 3008.78 1987.19 3021.09 1985.94C3031.61 1984.87 3033.58 1984.16 3034.47 1980.95 3035 1978.81 3035.54 1941.89 3035.54 1899.08 3035.54 1813.65 3035.72 1815.61 3025.01 1815.61 3022.16 1815.61 3017.35 1815.08 3014.31 1814.54L3008.78 1813.47 3008.78 1796.71 3008.78 1779.94 3072.1 1779.94 3135.41 1779.94 3135.41 1796.71C3135.41 1815.08 3135.24 1815.44 3122.04 1815.61 3119.18 1815.61 3114.9 1816.15 3112.76 1816.69 3108.66 1817.76 3108.66 1818.29 3108.66 1847.9L3108.66 1878.04 3142.55 1878.04 3176.43 1878.04 3176.08 1848.25 3175.54 1818.29 3171.08 1817.04C3168.59 1816.33 3162.88 1815.26 3158.24 1814.72L3149.68 1813.65 3149.68 1796.71 3149.68 1779.94 3213.89 1779.94 3278.09 1779.94 3278.09 1796.71 3278.09 1813.47 3270.96 1814.54C3267.04 1815.08 3260.62 1816.15 3256.69 1816.69L3249.56 1817.76 3249.92 1900.87 3250.45 1984.16 3263.83 1985.94 3277.2 1987.72 3277.74 2005.2 3278.27 2022.5 3213.89 2022.5 3149.68 2022.5 3149.68 2004.85 3149.68 1987.37 3162.7 1985.76 3175.54 1984.16 3176.08 1957.05 3176.61 1929.76 3142.55 1929.76 3108.48 1929.76 3109.02 1957.05 3109.55 1984.16 3122.57 1985.76 3135.41 1987.37 3135.41 2004.85 3135.41 2022.5 3072.1 2022.5 3008.78 2022.5 3008.78 2004.85Z" fill="#FFFFFF" transform="matrix(1.00076 0 0 -1 -1813.22 2214.77)"/><path d="M2278.44 1909.07C2122.02 1901.58 2011.27 1889.99 1865.91 1866.09 1844.15 1862.52 1826.67 1859.31 1827.03 1858.95 1827.39 1858.42 1841.3 1860.2 1857.88 1862.7 1983.09 1881.6 2109.89 1893.38 2260.6 1899.8 2325.16 1902.47 2524.2 1902.47 2582.53 1899.8 2654.04 1896.41 2675.09 1895.69 2659.22 1897.66 2644.95 1899.26 2585.2 1903.72 2535.26 1906.75 2506.55 1908.54 2304.83 1910.32 2278.44 1909.07Z" fill="#FFFFFF" transform="matrix(1.00076 0 0 -1 -1813.22 2214.77)"/><path d="M2733.77 1904.79C2729.31 1900.15 2728.59 1898.37 2729.49 1893.55 2731.09 1885.17 2736.44 1881.6 2747.32 1881.6 2754.99 1881.6 2757.49 1882.5 2760.88 1886.06 2766.05 1891.59 2764.8 1894.8 2754.1 1903.72 2744.65 1911.57 2740.72 1911.75 2733.77 1904.79Z" fill="#FFFFFF" transform="matrix(1.00076 0 0 -1 -1813.22 2214.77)"/><path d="M1715.02 1897.3C1713.24 1888.56 1710.39 1869.48 1710.39 1865.91 1710.39 1862.16 1711.1 1861.99 1725.19 1861.99 1744.63 1862.16 1779.23 1864.84 1807.23 1868.41L1829.88 1871.44 1829.88 1886.24 1829.88 1901.22 1772.81 1901.22 1715.74 1901.22 1715.02 1897.3Z" fill="#FFFFFF" transform="matrix(1.00076 0 0 -1 -1813.22 2214.77)"/><path d="M2678.48 1894.62C2680.62 1894.27 2684.19 1894.27 2686.5 1894.62 2688.64 1894.98 2686.86 1895.34 2682.4 1895.34 2677.94 1895.34 2676.16 1894.98 2678.48 1894.62Z" fill="#FFFFFF" transform="matrix(1.00076 0 0 -1 -1813.22 2214.77)"/><path d="M2352.45 1882.32C2349.78 1875.72 2349.96 1875.54 2359.59 1872.15 2367.26 1869.48 2368.5 1868.23 2369.4 1863.06 2370.82 1855.57 2369.75 1816.33 2368.15 1814.72 2367.43 1814.01 2364.22 1812.94 2361.01 1812.23L2355.13 1810.98 2354.59 1795.46 2354.06 1779.94 2401.5 1779.94 2448.94 1779.94 2448.41 1795.46 2447.87 1810.98 2442.34 1812.23C2432.53 1814.19 2432.71 1813.3 2432.71 1851.46L2432.71 1886.96 2393.47 1886.96 2354.24 1886.96 2352.45 1882.32Z" fill="#FFFFFF" transform="matrix(1.00076 0 0 -1 -1813.22 2214.77)"/><path d="M2529.2 1853.43C2522.96 1836.66 2516.71 1821.86 2515.29 1820.79 2513.86 1819.54 2509.04 1817.58 2504.41 1816.51L2496.02 1814.37 2495.49 1797.07 2494.95 1779.94 2550.42 1779.94 2605.71 1779.94 2605.71 1796.71 2605.71 1813.47 2600.18 1814.54C2597.15 1815.08 2592.51 1815.61 2589.84 1815.61 2581.63 1815.61 2580.21 1817.76 2582.7 1826.14L2584.84 1833.45 2621.58 1833.09 2658.15 1832.56 2660.82 1825.78C2663.85 1817.58 2662.25 1815.61 2652.08 1815.61 2637.99 1815.44 2637.81 1815.26 2637.81 1796.71L2637.81 1779.94 2702.02 1779.94 2766.23 1779.94 2766.23 1796.89 2766.23 1813.65 2758.74 1815.61C2743.75 1819.36 2744.29 1818.83 2733.95 1847.72 2726.28 1868.94 2723.6 1874.83 2720.75 1875.36 2715.75 1876.25 2617.48 1881.25 2575.21 1882.68L2540.43 1883.92 2529.2 1853.43Z" fill="#FFFFFF" transform="matrix(1.00076 0 0 -1 -1813.22 2214.77)"/><path d="M2158.05 1878.04C2147.7 1877.32 2138.25 1876.61 2137.18 1876.43 2135.4 1876.25 2134.86 1869.3 2134.86 1847.72L2134.86 1819.18 2130.23 1817.4C2127.73 1816.33 2123.09 1815.61 2119.7 1815.61 2108.47 1815.61 2108.11 1815.08 2108.11 1796.71L2108.11 1779.94 2206.2 1779.94 2304.3 1779.94 2304.3 1823.64 2304.3 1867.34 2278.61 1867.34 2252.93 1867.34 2250.97 1852.71C2249.72 1844.51 2248.47 1835.77 2247.94 1833.09L2246.87 1828.1 2227.43 1828.1 2207.99 1828.1 2207.99 1853.96 2207.99 1879.82 2192.47 1879.46C2183.73 1879.29 2168.39 1878.57 2158.05 1878.04Z" fill="#FFFFFF" transform="matrix(1.00076 0 0 -1 -1813.22 2214.77)"/><path d="M2047.47 1869.83C2034.27 1868.59 2020.9 1867.52 2018.04 1867.52 2013.23 1867.34 2012.34 1866.45 2009.48 1858.24 2003.6 1842.19 1988.97 1831.67 1971.85 1831.67 1954.91 1831.67 1938.32 1840.94 1933.33 1853.07 1932.08 1856.1 1930.12 1858.42 1929.05 1858.42 1923.87 1858.24 1858.06 1849.86 1857.35 1849.15 1855.92 1847.54 1861.81 1833.27 1868.23 1822.75 1880.36 1802.95 1905.15 1785.3 1928.87 1779.94 1953.3 1774.24 1990.22 1774.77 2011.62 1781.01 2048.19 1791.54 2075.29 1819.18 2084.21 1855.03 2085.64 1861.27 2087.42 1867.87 2087.78 1869.66 2088.85 1873.4 2083.86 1873.4 2047.47 1869.83Z" fill="#FFFFFF" transform="matrix(1.00076 0 0 -1 -1813.22 2214.77)"/><path d="M1817.04 1857.17C1818.11 1856.81 1820.25 1856.81 1821.5 1857.17 1822.57 1857.71 1821.68 1858.06 1819.18 1858.06 1816.69 1858.06 1815.79 1857.71 1817.04 1857.17Z" fill="#FFFFFF" transform="matrix(1.00076 0 0 -1 -1813.22 2214.77)"/><path d="M1808.12 1855.39C1809.37 1854.85 1810.98 1855.03 1811.51 1855.57 1812.23 1856.1 1811.16 1856.64 1809.19 1856.46 1807.23 1856.46 1806.7 1855.92 1808.12 1855.39Z" fill="#FFFFFF" transform="matrix(1.00076 0 0 -1 -1813.22 2214.77)"/><path d="M1923.16 1721.8C1913.17 1718.24 1902.12 1706.82 1898.73 1696.65 1897.12 1691.84 1895.87 1682.39 1895.87 1674.72 1895.87 1642.44 1911.03 1625.85 1940.64 1626.21 1968.82 1626.56 1984.69 1647.07 1982.91 1680.78 1982.02 1696.65 1978.27 1706.11 1969.53 1714.31 1959.37 1724.12 1939.03 1727.33 1923.16 1721.8ZM1956.51 1713.06C1972.03 1705.04 1979.16 1678.11 1971.67 1656.7 1964.89 1637.62 1944.21 1628.35 1925.66 1636.19 1917.81 1639.4 1908.89 1649.93 1906.4 1659.02 1903.19 1671.33 1905.15 1690.77 1910.85 1700.4 1919.59 1715.38 1940.64 1721.27 1956.51 1713.06Z" fill="#FFFFFF" transform="matrix(1.00076 0 0 -1 -1813.22 2214.77)"/><path d="M2354.24 1723.05C2341.22 1719.13 2331.94 1710.74 2326.23 1698.08 2322.13 1689.16 2322.13 1660.27 2326.23 1651.35 2333.73 1634.59 2346.74 1626.38 2365.65 1626.38 2385.09 1626.38 2397.75 1633.7 2405.24 1649.39 2409.52 1658.13 2410.24 1661.88 2410.42 1675.61 2410.42 1699.69 2403.82 1712.71 2387.41 1720.38 2378.13 1724.66 2363.69 1725.9 2354.24 1723.05ZM2386.52 1711.28C2402.93 1700.58 2407.03 1666.69 2394.19 1647.43 2382.24 1629.24 2351.2 1629.42 2339.08 1647.61 2326.41 1666.69 2330.51 1698.44 2347.28 1710.92 2357.62 1718.41 2375.28 1718.59 2386.52 1711.28Z" fill="#FFFFFF" transform="matrix(1.00076 0 0 -1 -1813.22 2214.77)"/><path d="M2942.44 1722.16C2922.64 1714.49 2914.26 1700.4 2914.08 1675.07 2914.08 1650.82 2924.42 1632.81 2941.19 1628.35 2952.07 1625.31 2973.29 1626.03 2981.85 1629.42 2989.17 1632.27 2989.17 1632.27 2989.17 1642.08 2989.17 1650.28 2988.63 1651.71 2986.13 1651.18 2983.99 1650.82 2982.75 1648.68 2982.39 1644.93 2981.68 1637.26 2978.46 1635.3 2965.62 1634.23 2950.11 1632.98 2941.01 1635.84 2933.34 1644.22 2925.85 1652.42 2923.18 1660.81 2923.18 1675.79 2923.18 1702.54 2936.2 1716.45 2960.81 1716.27 2975.25 1716.27 2978.64 1714.49 2981.14 1705.75 2982.21 1701.65 2984.35 1698.62 2986.13 1698.26 2988.63 1697.72 2989.17 1699.15 2989.17 1707.53 2989.17 1716.81 2988.81 1717.52 2983.46 1720.38 2975.61 1724.48 2951.18 1725.37 2942.44 1722.16Z" fill="#FFFFFF" transform="matrix(1.00076 0 0 -1 -1813.22 2214.77)"/><path d="M3142.37 1722.87C3128.81 1718.77 3123.82 1710.74 3124.53 1693.8 3124.89 1685.95 3134.34 1677.75 3147.9 1673.29 3170.01 1665.8 3175.19 1660.09 3171.8 1646.36 3169.84 1638.51 3161.45 1633.7 3149.5 1633.7 3136.31 1633.7 3130.6 1636.55 3129.35 1643.68 3128.46 1648.14 3127.21 1649.75 3124.71 1649.75 3121.68 1649.75 3121.15 1648.5 3121.15 1639.94L3121.15 1630.31 3128.28 1628.35C3132.38 1627.28 3141.12 1626.38 3148.08 1626.38 3170.19 1626.21 3181.78 1635.3 3181.78 1652.42 3181.78 1667.23 3175.36 1673.83 3153.61 1680.96 3140.05 1685.24 3133.63 1691.3 3133.63 1699.33 3133.81 1710.92 3140.76 1715.92 3156.1 1715.92 3167.7 1715.92 3170.37 1714.31 3171.8 1705.93 3172.69 1701.29 3173.94 1699.69 3176.43 1699.69 3179.64 1699.69 3180 1700.94 3180 1710.21L3180 1720.73 3172.15 1722.69C3163.06 1724.83 3149.33 1725.01 3142.37 1722.87Z" fill="#FFFFFF" transform="matrix(1.00076 0 0 -1 -1813.22 2214.77)"/><path d="M1690.77 1720.2C1690.77 1718.77 1692.73 1717.17 1695.23 1716.45L1699.69 1715.38 1699.69 1674.54 1699.69 1633.7 1695.23 1633.7C1692.02 1633.7 1690.77 1632.81 1690.77 1630.13 1690.77 1626.56 1691.66 1626.38 1705.57 1626.92 1717.17 1627.28 1720.2 1627.99 1720.2 1630.13 1720.2 1631.73 1718.06 1633.16 1714.85 1633.7L1709.5 1634.59 1709.5 1651.53 1709.5 1668.48 1717.7 1669.01C1731.43 1669.9 1734.11 1667.94 1740.89 1651.35 1744.27 1643.15 1747.31 1635.84 1747.48 1635.12 1747.84 1634.41 1745.7 1633.7 1742.67 1633.7 1738.21 1633.7 1737.14 1632.98 1737.14 1630.13 1737.14 1626.56 1738.03 1626.38 1752.84 1626.92 1764.96 1627.28 1768.35 1627.99 1768.35 1629.95 1768.35 1631.38 1765.85 1633.16 1762.82 1634.05 1758.01 1635.3 1756.58 1637.26 1751.59 1649.21 1748.38 1656.88 1744.45 1665.09 1743.03 1667.41 1740.71 1670.97 1740.71 1672.04 1742.49 1672.58 1743.74 1673.11 1747.13 1675.43 1749.98 1678.11 1759.79 1686.85 1760.33 1706.46 1751.05 1715.2 1744.27 1721.62 1737.85 1722.87 1713.78 1722.87 1694.69 1722.87 1690.77 1722.52 1690.77 1720.2ZM1734.29 1713.95C1743.92 1711.81 1748.38 1706.82 1748.38 1698.44 1748.38 1694.69 1747.66 1689.7 1746.95 1687.38 1745.17 1681.32 1733.04 1676.5 1719.84 1676.5L1708.6 1676.5 1708.6 1696.12 1708.6 1715.74 1718.06 1715.74C1723.05 1715.74 1730.54 1714.85 1734.29 1713.95Z" fill="#FFFFFF" transform="matrix(1.00076 0 0 -1 -1813.22 2214.77)"/><path d="M2118.81 1720.2C2118.81 1718.77 2120.77 1717.17 2123.27 1716.45L2127.73 1715.38 2127.73 1674.54 2127.73 1633.7 2123.27 1633.7C2119.88 1633.7 2118.81 1632.81 2118.81 1629.95 2118.81 1626.03 2119.17 1626.03 2144.32 1626.92 2161.26 1627.63 2171.96 1628.88 2176.24 1630.66 2196.39 1639.05 2194.25 1670.97 2173.39 1675.79L2168.22 1676.86 2173.74 1680.25C2183.2 1686.49 2186.76 1703.61 2180.34 1713.42 2175.35 1720.91 2167.5 1722.87 2142 1722.87 2122.74 1722.87 2118.81 1722.52 2118.81 1720.2ZM2163.76 1713.95C2171.43 1711.81 2174.1 1707.89 2174.1 1698.79 2174.1 1685.6 2166.25 1680.07 2147.35 1680.07L2136.65 1680.07 2136.65 1697.9 2136.65 1715.74 2146.99 1715.74C2152.52 1715.74 2160.19 1714.85 2163.76 1713.95ZM2165 1670.97C2175.71 1668.65 2179.63 1664.73 2180.7 1654.56 2181.41 1648.14 2180.88 1646 2177.13 1641.72 2172.85 1636.73 2171.96 1636.55 2154.66 1635.84L2136.65 1635.12 2136.65 1652.78C2136.65 1662.59 2137.18 1671.15 2137.9 1671.69 2139.68 1673.65 2155.02 1673.11 2165 1670.97Z" fill="#FFFFFF" transform="matrix(1.00076 0 0 -1 -1813.22 2214.77)"/><path d="M2537.94 1713.06C2537.94 1704.5 2538.29 1703.25 2541.5 1703.25 2544 1703.25 2545.43 1705.04 2546.5 1709.14L2547.93 1714.85 2560.41 1714.85 2572.72 1714.85 2573.25 1678.28C2573.43 1658.13 2573.25 1639.94 2572.72 1637.8 2572 1634.41 2570.58 1633.7 2564.69 1633.7 2558.8 1633.7 2557.56 1633.16 2557.56 1630.13 2557.56 1626.74 2558.8 1626.56 2578.07 1626.56 2597.33 1626.56 2598.58 1626.74 2598.58 1630.13 2598.58 1633.16 2597.33 1633.7 2590.73 1633.7 2585.2 1633.7 2582.53 1634.59 2581.81 1636.55 2581.28 1638.16 2580.74 1656.53 2580.74 1677.57L2580.74 1715.74 2594.12 1715.74C2606.07 1715.74 2607.49 1715.38 2607.49 1712.35 2607.49 1706.46 2609.46 1703.25 2613.02 1703.25 2615.88 1703.25 2616.41 1704.68 2616.41 1713.06L2616.41 1722.87 2577.17 1722.87 2537.94 1722.87 2537.94 1713.06Z" fill="#FFFFFF" transform="matrix(1.00076 0 0 -1 -1813.22 2214.77)"/><path d="M2746.61 1720.38C2746.61 1718.95 2749.28 1717.34 2752.85 1716.81L2759.09 1715.56 2758.74 1675.07 2758.2 1634.59 2752.49 1634.05C2748.03 1633.52 2746.61 1632.63 2746.61 1629.95 2746.61 1626.74 2747.68 1626.38 2763.19 1626.92 2776.39 1627.28 2779.6 1627.99 2779.6 1630.13 2779.6 1631.91 2777.46 1632.98 2773.9 1633.34L2768.01 1633.88 2768.01 1674.72 2768.01 1715.56 2774.25 1716.81C2777.82 1717.34 2780.49 1718.95 2780.49 1720.38 2780.49 1722.34 2776.75 1722.87 2763.55 1722.87 2750.35 1722.87 2746.61 1722.34 2746.61 1720.38Z" fill="#FFFFFF" transform="matrix(1.00076 0 0 -1 -1813.22 2214.77)"/></g></svg>